<?xml version="1.0" encoding="UTF-8"?>
<svg xmlns="http://www.w3.org/2000/svg" xmlns:xlink="http://www.w3.org/1999/xlink" width="2102" height="2102" viewBox="0 0 2102 2102">
<path fill="none" stroke-width="5.0003" stroke-linecap="butt" stroke-linejoin="miter" stroke="rgb(99.609375%, 99.609375%, 99.609375%)" stroke-opacity="1" stroke-miterlimit="22.9256" d="M 10 21010 L 21010 21010 L 21010 10 L 10 10 Z M 10 21010 " transform="matrix(0.1, 0, 0, -0.1, 0, 2102)"/>
<path fill-rule="evenodd" fill="rgb(58.006287%, 85.9375%, 49.804688%)" fill-opacity="1" d="M 842.953125 1435.273438 L 846.214844 1432.621094 L 845.734375 1430.53125 C 845.695312 1425.390625 845.027344 1434.269531 845.730469 1428.273438 L 882.777344 1298.832031 C 886.589844 1286.199219 894.015625 1265.261719 895.210938 1253.585938 L 888.167969 1251.996094 C 881.386719 1247.097656 804.828125 1162.886719 799.128906 1154.4375 L 560.851562 1154.492188 L 476.109375 1291.96875 C 479.121094 1298.03125 574.382812 1384.152344 577.949219 1387.074219 C 584.386719 1392.34375 588.648438 1397.679688 595.132812 1402.929688 L 629.21875 1434.804688 C 638.550781 1442.769531 636.804688 1443.335938 653.234375 1443.183594 L 818.386719 1443.210938 C 834.546875 1443.28125 831.128906 1440.855469 842.953125 1435.273438 "/>
<path fill-rule="evenodd" fill="rgb(95.3125%, 90.625%, 82.03125%)" fill-opacity="1" d="M 832.515625 1477.535156 L 801.445312 1582.183594 C 799.308594 1591.644531 799.558594 1585.074219 801.417969 1588.972656 L 1305.101562 1443.859375 L 1300.621094 1295.148438 L 1300.621094 1294.070312 C 1275.929688 1289.746094 1248.449219 1288.675781 1222.679688 1285.679688 C 1209.328125 1284.125 1196.558594 1282.925781 1183.269531 1281.769531 C 1162.171875 1279.9375 1166.921875 1277.632812 1150.78125 1287.675781 L 1045.011719 1351.910156 C 1009.730469 1372.429688 974.089844 1394.816406 939.308594 1416.242188 C 924.253906 1425.519531 842.78125 1477.160156 832.515625 1477.535156 "/>
<path fill-rule="evenodd" fill="rgb(52.929688%, 78.90625%, 83.59375%)" fill-opacity="1" d="M 904.1875 1219.441406 L 906.148438 1219.445312 C 908.453125 1207.527344 918.527344 1169.613281 923.085938 1159.132812 C 925.707031 1153.105469 926.980469 1154.644531 933.589844 1151.574219 L 1047.21875 1090.390625 C 1056.191406 1084.949219 1066.578125 1081.820312 1071.949219 1074.351562 L 1060.671875 1043.398438 C 1051.171875 1045.738281 1010.308594 1070.078125 998.3125 1075.75 L 939.769531 1107.46875 C 933.542969 1111.328125 939.101562 1106.855469 938.394531 1108.789062 L 975.746094 975.78125 C 978.925781 964.960938 977.15625 964.160156 982.6875 958.859375 C 972.238281 957.21875 888.066406 902.789062 872.023438 893.328125 C 853.613281 882.46875 836.054688 871.328125 817.839844 860.019531 L 761.804688 826.558594 C 757.113281 838.28125 684.214844 949.449219 675.316406 968.5 C 682.644531 978.671875 690.96875 985.488281 699.023438 995.359375 C 703.203125 1000.46875 707.703125 1004.078125 711.828125 1008.941406 L 799.890625 1105.730469 C 813.34375 1122.222656 810.683594 1120.25 838.109375 1120.238281 L 917.117188 1120.023438 C 923.660156 1119.042969 928.777344 1113.898438 936.460938 1111.460938 C 935.660156 1120.734375 930.855469 1133.90625 928.167969 1143.917969 C 927.035156 1148.128906 926.445312 1153.191406 922.277344 1154.296875 L 845.800781 1154.394531 C 846.179688 1157.519531 848.222656 1158.511719 851.035156 1161.746094 L 904.1875 1219.441406 "/>
<path fill-rule="evenodd" fill="rgb(95.3125%, 90.625%, 82.03125%)" fill-opacity="1" d="M 1297.308594 1196.8125 C 1292.578125 1202.167969 1283.261719 1206.21875 1277.511719 1209.808594 C 1270 1214.496094 1262.421875 1218.90625 1255.941406 1222.816406 C 1241.5 1231.53125 1227.800781 1240.175781 1213.75 1248.097656 C 1216.449219 1250.820312 1217.921875 1251.554688 1223.558594 1252.230469 L 1256.261719 1254.828125 C 1270.730469 1256.070312 1285.898438 1258.769531 1300.070312 1259.078125 C 1311.679688 1260.78125 1391.800781 1292.003906 1409.179688 1298.585938 C 1432.871094 1307.5625 1725.230469 1417.074219 1737.421875 1419.410156 L 1661.648438 1179.015625 L 1315.160156 1190.453125 C 1304.941406 1191.308594 1306.621094 1195.539062 1297.308594 1196.8125 "/>
<path fill-rule="evenodd" fill="rgb(52.929688%, 78.90625%, 83.59375%)" fill-opacity="1" d="M 1305.101562 1443.859375 L 1785.761719 1573.175781 L 1751.800781 1464.234375 C 1748.679688 1458.578125 1728.679688 1453.371094 1718.578125 1449.546875 C 1671.878906 1431.871094 1626.449219 1415.554688 1580.160156 1398.011719 C 1534.339844 1380.644531 1487.378906 1364.078125 1441.628906 1346.914062 C 1417.839844 1337.992188 1316.179688 1298.984375 1300.621094 1295.148438 L 1305.101562 1443.859375 "/>
<path fill-rule="evenodd" fill="rgb(42.358398%, 63.084412%, 67.381287%)" fill-opacity="1" d="M 1124.988281 1046.648438 C 1118.730469 1060.25 1112.878906 1083.121094 1108.519531 1098.671875 C 1105.441406 1109.671875 1099.289062 1148.535156 1095.011719 1154.8125 L 1094.898438 1162.804688 C 1090.941406 1151.070312 1087.921875 1131.351562 1084.441406 1118.28125 C 1080.511719 1103.484375 1075.160156 1088.738281 1071.949219 1074.351562 C 1066.578125 1081.820312 1056.191406 1084.949219 1047.21875 1090.390625 L 933.589844 1151.574219 C 926.980469 1154.644531 925.707031 1153.105469 923.085938 1159.132812 C 918.527344 1169.613281 908.453125 1207.527344 906.148438 1219.445312 C 918.71875 1223.894531 998.617188 1229.3125 1017.820312 1231.097656 C 1055.660156 1234.613281 1094.261719 1239.035156 1131.96875 1242.378906 C 1164.519531 1245.261719 1155.308594 1244.160156 1179.070312 1230.3125 C 1192.628906 1222.410156 1204.71875 1214.867188 1218.359375 1206.875 C 1225.121094 1202.914062 1230.558594 1198.867188 1237.71875 1194.785156 C 1244.570312 1190.886719 1250.738281 1186.710938 1257.191406 1182.914062 C 1270.339844 1175.183594 1283.351562 1167.609375 1296.578125 1158.882812 L 1296.691406 1158.46875 L 1292.269531 1027.910156 L 1292.191406 1027.210938 C 1278.78125 1024.511719 1259.058594 1016.289062 1245.890625 1011.328125 C 1213.839844 999.261719 1216.28125 996.671875 1202.941406 1004.851562 L 1124.988281 1046.648438 "/>
<path fill-rule="evenodd" fill="rgb(79.6875%, 79.6875%, 79.6875%)" fill-opacity="1" d="M 316.238281 1460.304688 L 755.179688 1596.894531 L 615.09375 1467.136719 C 589.96875 1446.988281 537.136719 1393.300781 513.226562 1374.257812 C 500.511719 1364.132812 440.121094 1305.566406 432.21875 1300.570312 C 433.726562 1292.203125 489.527344 1206.9375 499.316406 1188.378906 C 484.144531 1207.644531 467.707031 1233.679688 453.367188 1255.441406 L 350.285156 1408.210938 C 343.445312 1418.390625 318 1453.011719 316.238281 1460.304688 "/>
<path fill-rule="evenodd" fill="rgb(79.6875%, 79.6875%, 79.6875%)" fill-opacity="1" d="M 882.257812 1602.582031 C 913.859375 1603.359375 957.0625 1597.390625 989.90625 1595.328125 L 1199.179688 1580.386719 C 1233.308594 1578.230469 1269.78125 1573.867188 1303.441406 1573.0625 C 1336.078125 1572.28125 1377.398438 1576.261719 1410.78125 1578.109375 C 1445.949219 1580.054688 1481.378906 1581.710938 1516.730469 1583.265625 C 1549.910156 1584.722656 1712.140625 1595.214844 1730.03125 1592.941406 C 1724.851562 1593.171875 1636.699219 1568.253906 1623.421875 1564.539062 C 1579.371094 1552.226562 1309.191406 1478.621094 1302.851562 1479.605469 L 894.765625 1597.820312 C 892.941406 1598.328125 890.070312 1598.972656 888.378906 1599.5625 L 883.453125 1601.851562 C 883.242188 1601.488281 882.636719 1602.308594 882.257812 1602.582031 "/>
<path fill-rule="evenodd" fill="rgb(52.929688%, 78.90625%, 83.59375%)" fill-opacity="1" d="M 1290.609375 957.101562 C 1278.550781 961.738281 1264.820312 971.558594 1253.789062 976.429688 C 1257.800781 981.089844 1256.191406 979.511719 1262.640625 981.570312 L 1292.210938 991.691406 L 1629.269531 1079.398438 L 1579.460938 919.019531 C 1560.300781 912.789062 1524.738281 907.738281 1503.601562 903.511719 C 1471.820312 897.148438 1471.808594 902.429688 1430.941406 914.320312 C 1407.101562 921.25 1305.289062 950.019531 1290.609375 957.101562 "/>
<path fill-rule="evenodd" fill="rgb(79.6875%, 79.6875%, 79.6875%)" fill-opacity="1" d="M 906.148438 1219.445312 L 904.1875 1219.441406 C 904.683594 1231.257812 898.261719 1241.269531 896.617188 1252.847656 L 888.167969 1251.996094 L 895.210938 1253.585938 L 1105.710938 1274.074219 C 1100.761719 1279.402344 1052.929688 1306.585938 1041.621094 1313.941406 L 846.214844 1432.621094 L 842.953125 1435.273438 L 832.515625 1477.535156 C 842.78125 1477.160156 924.253906 1425.519531 939.308594 1416.242188 C 974.089844 1394.816406 1009.730469 1372.429688 1045.011719 1351.910156 L 1150.78125 1287.675781 C 1166.921875 1277.632812 1162.171875 1279.9375 1183.269531 1281.769531 C 1196.558594 1282.925781 1209.328125 1284.125 1222.679688 1285.679688 C 1248.449219 1288.675781 1275.929688 1289.746094 1300.621094 1294.070312 L 1300.070312 1259.078125 C 1285.898438 1258.769531 1270.730469 1256.070312 1256.261719 1254.828125 L 1223.558594 1252.230469 C 1217.921875 1251.554688 1216.449219 1250.820312 1213.75 1248.097656 C 1227.800781 1240.175781 1241.5 1231.53125 1255.941406 1222.816406 C 1262.421875 1218.90625 1270 1214.496094 1277.511719 1209.808594 C 1283.261719 1206.21875 1292.578125 1202.167969 1297.308594 1196.8125 L 1296.578125 1158.882812 C 1283.351562 1167.609375 1270.339844 1175.183594 1257.191406 1182.914062 C 1250.738281 1186.710938 1244.570312 1190.886719 1237.71875 1194.785156 C 1230.558594 1198.867188 1225.121094 1202.914062 1218.359375 1206.875 C 1204.71875 1214.867188 1192.628906 1222.410156 1179.070312 1230.3125 C 1155.308594 1244.160156 1164.519531 1245.261719 1131.96875 1242.378906 C 1094.261719 1239.035156 1055.660156 1234.613281 1017.820312 1231.097656 C 998.617188 1229.3125 918.71875 1223.894531 906.148438 1219.445312 "/>
<path fill-rule="evenodd" fill="rgb(69.334412%, 65.429688%, 65.818787%)" fill-opacity="1" d="M 1296.691406 1158.46875 C 1307.808594 1154.769531 1614.671875 1145.597656 1650.519531 1145.433594 L 1642.46875 1118.882812 C 1641.429688 1118.847656 1640.871094 1118.101562 1640.679688 1118.4375 L 1632.089844 1115.15625 C 1549.589844 1093.109375 1463.308594 1072.738281 1381.480469 1050.421875 C 1354.890625 1043.171875 1318.890625 1032.589844 1292.269531 1027.910156 L 1296.691406 1158.46875 "/>
<path fill-rule="evenodd" fill="rgb(51.756287%, 79.6875%, 42.747498%)" fill-opacity="1" d="M 846.214844 1432.621094 L 1041.621094 1313.941406 C 1052.929688 1306.585938 1100.761719 1279.402344 1105.710938 1274.074219 L 895.210938 1253.585938 C 894.015625 1265.261719 886.589844 1286.199219 882.777344 1298.832031 L 845.730469 1428.273438 C 845.027344 1434.269531 845.695312 1425.390625 845.734375 1430.53125 L 846.214844 1432.621094 "/>
<path fill-rule="evenodd" fill="rgb(52.929688%, 78.90625%, 83.59375%)" fill-opacity="1" d="M 582.199219 1120.367188 L 765.863281 1120.421875 C 761.972656 1112.59375 743.875 1096.050781 738.59375 1089.511719 C 729.804688 1078.609375 659.835938 1002.109375 655.285156 999.96875 L 582.199219 1120.367188 "/>
<path fill-rule="evenodd" fill="rgb(42.358398%, 63.084412%, 67.381287%)" fill-opacity="1" d="M 1195.609375 889.480469 L 1166.828125 945.890625 C 1219.390625 965.308594 1204.921875 963.769531 1230.101562 951.179688 C 1240.050781 946.210938 1249.699219 940.710938 1258.96875 935.449219 C 1269.691406 929.359375 1279.308594 925.640625 1289.609375 919.738281 L 1408.269531 885.039062 C 1372.96875 876.179688 1335.078125 870.691406 1298.910156 862.941406 C 1279.578125 858.789062 1271.261719 865.859375 1246.460938 873.460938 C 1229.371094 878.699219 1212.871094 885.371094 1195.609375 889.480469 "/>
<path fill-rule="evenodd" fill="rgb(42.358398%, 63.084412%, 67.381287%)" fill-opacity="1" d="M 982.6875 958.859375 C 977.15625 964.160156 978.925781 964.960938 975.746094 975.78125 L 938.394531 1108.789062 C 939.101562 1106.855469 933.542969 1111.328125 939.769531 1107.46875 L 998.3125 1075.75 C 1010.308594 1070.078125 1051.171875 1045.738281 1060.671875 1043.398438 C 1057.230469 1028.910156 1047.929688 1008.480469 1041.980469 994.039062 C 1035.300781 977.839844 1027.441406 961.800781 1021.269531 946.128906 L 982.6875 958.859375 "/>
<path fill-rule="evenodd" fill="rgb(79.6875%, 79.6875%, 79.6875%)" fill-opacity="1" d="M 1166.828125 945.890625 C 1157.980469 960.609375 1151.910156 979.140625 1145.140625 994.800781 C 1138.75 1009.578125 1128.519531 1031.441406 1124.988281 1046.648438 L 1202.941406 1004.851562 C 1216.28125 996.671875 1213.839844 999.261719 1245.890625 1011.328125 C 1259.058594 1016.289062 1278.78125 1024.511719 1292.191406 1027.210938 L 1292.210938 991.691406 L 1262.640625 981.570312 C 1256.191406 979.511719 1257.800781 981.089844 1253.789062 976.429688 C 1264.820312 971.558594 1278.550781 961.738281 1290.609375 957.101562 L 1289.609375 919.738281 C 1279.308594 925.640625 1269.691406 929.359375 1258.96875 935.449219 C 1249.699219 940.710938 1240.050781 946.210938 1230.101562 951.179688 C 1204.921875 963.769531 1219.390625 965.308594 1166.828125 945.890625 "/>
<path fill-rule="evenodd" fill="rgb(52.929688%, 78.90625%, 83.59375%)" fill-opacity="1" d="M 801.417969 1588.972656 C 799.558594 1585.074219 799.308594 1591.644531 801.445312 1582.183594 L 832.515625 1477.535156 L 678.03125 1477.246094 C 679.246094 1480.285156 678.570312 1478.625 680.589844 1480.945312 C 681.4375 1481.921875 683.265625 1483.664062 684.636719 1485.054688 L 707.753906 1506.390625 C 717.308594 1515.941406 729.484375 1525.5 739.148438 1534.539062 L 769.683594 1563.328125 C 772.683594 1565.894531 775.058594 1567.476562 777.90625 1570.101562 C 781.347656 1573.269531 796.328125 1591.261719 801.417969 1588.972656 "/>
<path fill-rule="evenodd" fill="rgb(90.625%, 0%, 0%)" fill-opacity="1" d="M 1079.050781 645.230469 C 1226.941406 621.851562 1257.808594 839.039062 1116.101562 865.730469 C 968.003906 893.621094 932.925781 668.320312 1079.050781 645.230469 Z M 1054.699219 502.761719 C 893.058594 528.570312 791.113281 706.449219 864.976562 866.488281 C 877.460938 893.53125 1014.789062 1084.960938 1048.351562 1129.253906 C 1059.269531 1143.664062 1067.890625 1158.507812 1080.109375 1172.453125 C 1101.898438 1197.308594 1111.679688 1175.164062 1123.210938 1158.839844 L 1309.03125 898.578125 C 1330 869.75 1344.640625 830.578125 1350.558594 789.609375 C 1356.929688 745.570312 1348.851562 703.960938 1335.019531 664.359375 C 1329.460938 648.441406 1318.21875 626.929688 1309.828125 614.640625 C 1303.929688 605.988281 1299.628906 601.878906 1294.148438 594.691406 C 1287.359375 585.769531 1285.140625 580.410156 1277.039062 572.359375 C 1269.78125 565.140625 1247.359375 548.328125 1234.539062 539.789062 C 1220.238281 530.261719 1203.21875 521.609375 1184.699219 514.730469 C 1143.640625 499.460938 1098.660156 495.75 1054.699219 502.761719 "/>
<path fill-rule="evenodd" fill="rgb(92.1875%, 41.967773%, 41.575623%)" fill-opacity="1" d="M 1335.019531 664.359375 C 1329.460938 648.441406 1318.21875 626.929688 1309.828125 614.640625 C 1303.929688 605.988281 1299.628906 601.878906 1294.148438 594.691406 C 1287.359375 585.769531 1285.140625 580.410156 1277.039062 572.351562 C 1269.78125 565.140625 1247.359375 548.328125 1234.539062 539.789062 C 1220.238281 530.261719 1203.21875 521.609375 1184.699219 514.730469 C 1156.71875 504.320312 1126.921875 499.28125 1096.851562 499.351562 L 1096.851562 643.53125 C 1229.199219 639.550781 1251.929688 840.148438 1116.101562 865.730469 C 1109.460938 866.980469 1103.039062 867.71875 1096.851562 867.988281 L 1096.851562 1183.558594 C 1107.929688 1184.542969 1115.140625 1170.265625 1123.210938 1158.839844 L 1232.320312 1006.019531 L 1289.761719 925.558594 L 1295.058594 918.148438 L 1309.03125 898.578125 C 1315.640625 889.5 1321.609375 879.390625 1326.890625 868.53125 C 1338.359375 844.890625 1346.5 817.671875 1350.558594 789.609375 C 1356.929688 745.570312 1348.851562 703.960938 1335.019531 664.359375 "/>
</svg>
